<svg xmlns="http://www.w3.org/2000/svg" viewBox="0 0 114.44 18.85"><g id="Camada_2" data-name="Camada 2"><g id="Camada_2-2" data-name="Camada 2"><path d="M14.44,10.23v4.41a7.15,7.15,0,0,1-6,2.61A8.53,8.53,0,0,1,0,8.62,8.52,8.52,0,0,1,8.42,0,8.11,8.11,0,0,1,14,2.2L13.23,5C12.53,2.61,11,.4,8.52.4,5,.4,2.61,4.08,2.61,8.62s2.5,8,6.51,8A7.24,7.24,0,0,0,12,16V10.23A1.18,1.18,0,0,0,10.83,9h2.4A1.19,1.19,0,0,1,14.44,10.23Z"/><path d="M34.84,10.74a8.09,8.09,0,0,1-8.4,8.11,7.22,7.22,0,0,1-3.6-.94,6.75,6.75,0,0,0-3.3-.87H15a.88.88,0,0,0,.9-.9V5.34a.88.88,0,0,0-.9-.9h3.6a.88.88,0,0,0-.9.9V16.75h1.8a7,7,0,0,1,3.43.89,6.93,6.93,0,0,0,3.47.9c5.25,0,6.45-4.8,6.45-7.8,0-3.39-1.95-6.15-4.35-6.15s-4.35,2.76-4.35,6.15,1.95,6.15,4.35,6.15a4.84,4.84,0,0,0,1.78-.32,4.74,4.74,0,0,1-.58.5,5.87,5.87,0,0,1-1.2.13,6.38,6.38,0,0,1-6.3-6.46,6.3,6.3,0,1,1,12.6,0Zm-6.3-1.2a1.18,1.18,0,0,0,1.2,1.2,1.18,1.18,0,0,0-1.2,1.2,1.18,1.18,0,0,0-1.2-1.2A1.18,1.18,0,0,0,28.54,9.54Z"/><path d="M49.62,4.44a1.42,1.42,0,0,0-1.24.9L43.92,17h-.3l-2.1-5.51L39.42,17h-.3L34.66,5.34a1.43,1.43,0,0,0-1.24-.9H37c-.9,0-.56.9-.56.9L40,14.68l1.35-3.54-2.21-5.8a1.42,1.42,0,0,0-1.24-.9h3.6c-.9,0-.56.9-.56.9l3.56,9.34,3.56-9.34s.34-.9-.56-.9Z"/><path d="M63.78,16.05l.81,1h-1.8l-.27-.31a7.81,7.81,0,0,1-2.73.47c-3,0-5.4-1.45-5.4-3.83a3.6,3.6,0,0,1,2.5-3.3c-.58-.67-1.6-2-1.6-3,0-2,2-2.78,4.5-2.78a6.22,6.22,0,0,1,4.35,1.64L63.54,8c-.53-1.8-1.8-3.45-3.75-3.45a2.41,2.41,0,0,0-2.63,2.48,4.87,4.87,0,0,0,1.32,2.47l4.4,5.4a3.58,3.58,0,0,0,.36-1.57h1.95A3.25,3.25,0,0,1,63.78,16.05Zm-1.79,0-4.5-5.36a3.56,3.56,0,0,0-1.15,2.64,3.48,3.48,0,0,0,3.45,3.52A3.43,3.43,0,0,0,62,16.09Z"/><path d="M86.87,10.23v4.41a7.12,7.12,0,0,1-6,2.61,8.54,8.54,0,0,1-8.43-8.63A8.53,8.53,0,0,1,80.86,0a8.08,8.08,0,0,1,5.61,2.2L85.67,5C85,2.61,83.46.4,81,.4,77.45.4,75,4.08,75,8.62s2.51,8,6.52,8a7.28,7.28,0,0,0,2.91-.6V10.23A1.19,1.19,0,0,0,83.26,9h2.41A1.18,1.18,0,0,1,86.87,10.23Z"/><path d="M97.07,15.55,96.77,17h-9.3a.88.88,0,0,0,.9-.9V5.34a.88.88,0,0,0-.9-.9h3.6a.88.88,0,0,0-.9.9V16.75h5.48A1.47,1.47,0,0,0,97.07,15.55Zm2.06.59-1-2.7H93l-.12.33c0,.16-.23.87.57.87h-2.1a1.42,1.42,0,0,0,1.24-.9h0l3.54-9.31h.3l4.46,11.7a1.42,1.42,0,0,0,1.25.9h-3.6C99.48,17,99.13,16.14,99.13,16.14Zm-1.14-3L95.57,6.8l-2.41,6.34Zm-.92,2.41h0Z"/><path d="M114.44,17h-3.6a.88.88,0,0,0,.9-.9V5.28L107.54,17h-.3L103,6V16.14a.88.88,0,0,0,.9.9h-2.1a.88.88,0,0,0,.9-.9V5.34a.88.88,0,0,0-.9-.9h2.4l3.87,10.17,3.63-10.17h2.7a.88.88,0,0,0-.9.9v10.8A.88.88,0,0,0,114.44,17Z"/></g></g></svg>